Coordinates
version=1
nRows=10
nColumns=40
inDegrees=yes

Units are S.I. units (second, meters, Newtons, ...)
If the header above contains a line with 'inDegrees', this indicates whether rotational values are in degrees (yes) or radians (no).

endheader
time	pelvis_tilt	pelvis_list	pelvis_rotation	pelvis_tx	pelvis_ty	pelvis_tz	hip_flexion_r	hip_adduction_r	hip_rotation_r	knee_angle_r	knee_angle_r_beta	ankle_angle_r	subtalar_angle_r	mtp_angle_r	hip_flexion_l	hip_adduction_l	hip_rotation_l	knee_angle_l	knee_angle_l_beta	ankle_angle_l	subtalar_angle_l	mtp_angle_l	lumbar_extension	lumbar_bending	lumbar_rotation	arm_flex_r	arm_add_r	arm_rot_r	elbow_flex_r	pro_sup_r	wrist_flex_r	wrist_dev_r	arm_flex_l	arm_add_l	arm_rot_l	elbow_flex_l	pro_sup_l	wrist_flex_l	wrist_dev_l
     11.72500000	    -11.20132940	      1.38678253	    179.67088187	      0.26000390	      0.67107929	     -0.93971404	     48.55038916	    -43.17148323	     -5.42750338	     77.88807397	      1.35940334	     12.70032803	      0.00000000	      0.00000000	     44.35980385	    -49.77608324	     -1.34713910	     68.87266341	      1.20205474	      9.00848367	      0.00000000	      0.00000000	    -69.87098091	     -0.95660023	     -1.03274507	     45.80247395	      4.04245476	     27.13514565	      3.22880147	      9.94945399	      0.00000000	      0.00000000	     52.56365021	     -9.06186343	     79.46790215	      5.76416052	     83.41675000	      0.00000000	      0.00000000
     11.73000000	    -11.17895215	      1.35848579	    179.66615175	      0.25986146	      0.67157659	     -0.93969968	     48.50451543	    -43.12951654	     -5.40108270	     77.80440575	      1.35794305	     12.72172909	      0.00000000	      0.00000000	     44.26564168	    -49.77190306	     -1.46277998	     68.81030166	      1.20096632	      9.00739022	      0.00000000	      0.00000000	    -69.87125544	     -0.99453769	     -0.99555909	     45.83124059	      4.03046285	     27.13156558	      3.23125501	      9.95439391	      0.00000000	      0.00000000	     52.59318003	     -9.04837175	     79.40355070	      5.77478887	     83.41393547	      0.00000000	      0.00000000
     11.73500000	    -11.15855482	      1.32929201	    179.66331202	      0.25961294	      0.67209794	     -0.93979623	     48.46102166	    -43.13165726	     -5.41696425	     77.74460694	      1.35689937	     12.70179744	      0.00000000	      0.00000000	     44.17856734	    -49.76967221	     -1.57634701	     68.73823130	      1.19970846	      9.01070931	      0.00000000	      0.00000000	    -69.84986399	     -1.04689341	     -0.98575410	     45.82890563	      4.02156290	     27.12663973	      3.22563644	      9.95644076	      0.00000000	      0.00000000	     52.59980556	     -9.03739828	     79.35543795	      5.78615411	     83.41256952	      0.00000000	      0.00000000
     11.74000000	    -11.09737851	      1.32048917	    179.66790750	      0.25934256	      0.67274867	     -0.93968886	     48.37797567	    -43.11337175	     -5.49990691	     77.60519614	      1.35446619	     12.68876020	      0.00000000	      0.00000000	     44.09424169	    -49.76909314	     -1.76141558	     68.65543237	      1.19826334	      9.00504174	      0.00000000	      0.00000000	    -69.79773848	     -1.05624844	     -0.98152586	     45.83672353	      4.00077558	     27.12312812	      3.21993346	      9.95866588	      0.00000000	      0.00000000	     52.60288958	     -9.02899794	     79.30130477	      5.79600359	     83.41096454	      0.00000000	      0.00000000
     11.74500000	    -11.06705943	      1.33166952	    179.66665819	      0.25910308	      0.67350255	     -0.93949481	     48.22366263	    -43.06286933	     -5.60099614	     77.42084579	      1.35124867	     12.65656636	      0.00000000	      0.00000000	     43.95321803	    -49.77313756	     -1.95566212	     68.51075376	      1.19573823	      8.96583294	      0.00000000	      0.00000000	    -69.78792256	     -1.05403183	     -0.98108836	     45.86247482	      3.97681995	     27.12196901	      3.21923932	      9.96494562	      0.00000000	      0.00000000	     52.51496023	     -9.05106139	     79.24018763	      5.77500616	     83.43442166	      0.00000000	      0.00000000
     11.75000000	    -11.02831682	      1.30713664	    179.65736079	      0.25894380	      0.67407569	     -0.93953477	     48.18779291	    -43.03273121	     -5.60878625	     77.33245038	      1.34970588	     12.63484010	      0.00000000	      0.00000000	     43.85132805	    -49.76489309	     -2.07902801	     68.43428711	      1.19440363	      8.96010790	      0.00000000	      0.00000000	    -69.75001352	     -1.10497563	     -0.96880341	     45.88551516	      3.96369565	     27.12561791	      3.21571534	      9.96705718	      0.00000000	      0.00000000	     52.60144984	     -9.00733702	     79.19345064	      5.79499387	     83.43027335	      0.00000000	      0.00000000
     11.75500000	    -10.96815500	      1.29381324	    179.66135614	      0.25859201	      0.67473961	     -0.93945058	     48.11370737	    -43.04805240	     -5.71088401	     77.20903267	      1.34755183	     12.60147803	      0.00000000	      0.00000000	     43.75580585	    -49.76463727	     -2.27821649	     68.33520574	      1.19267434	      8.94558446	      0.00000000	      0.00000000	    -69.68741504	     -1.12418940	     -0.95785739	     45.89336615	      3.92782679	     27.12640453	      3.20329321	      9.96750175	      0.00000000	      0.00000000	     52.59698265	     -8.98320519	     79.14735784	      5.80281476	     83.43064748	      0.00000000	      0.00000000
     11.76000000	    -10.90826482	      1.27877035	    179.66440714	      0.25835870	      0.67544437	     -0.93935442	     48.03329439	    -43.02505426	     -5.77885034	     77.05889236	      1.34493139	     12.56552820	      0.00000000	      0.00000000	     43.64475231	    -49.76481229	     -2.47220935	     68.22606891	      1.19076954	      8.92328281	      0.00000000	      0.00000000	    -69.63813805	     -1.13867688	     -0.94840973	     45.89096021	      3.90202511	     27.12860560	      3.19357353	      9.96822171	      0.00000000	      0.00000000	     52.60709334	     -8.95586456	     79.10409989	      5.80217618	     83.43067150	      0.00000000	      0.00000000
     11.76500000	    -10.84765659	      1.26827889	    179.66039988	      0.25816796	      0.67619205	     -0.93923706	     47.94587659	    -42.97920930	     -5.83344155	     76.88928725	      1.34197122	     12.53789943	      0.00000000	      0.00000000	     43.54139775	    -49.76307178	     -2.67558875	     68.11108987	      1.18876278	      8.90372751	      0.00000000	      0.00000000	    -69.59347345	     -1.15623102	     -0.94328385	     45.90051140	      3.87404212	     27.13306425	      3.18894785	      9.96951533	      0.00000000	      0.00000000	     52.61001572	     -8.92426107	     79.06621430	      5.79848583	     83.43142160	      0.00000000	      0.00000000
     11.77000000	    -11.07590837	      1.26744598	    179.64971434	      0.25797722	      0.67770978	     -0.93909769	     47.43794781	    -42.96282216	     -6.04195674	     76.62877140	      1.33742436	     12.47771721	      0.00000000	      0.00000000	     42.84706325	    -49.76229502	     -3.09745100	     67.67654310	      1.18117850	      8.65959686	      0.00000000	      0.00000000	    -69.86407001	     -1.16561940	     -0.93425356	     45.97790911	      3.84539304	     27.17712630	      3.20539493	      9.99463012	      0.00000000	      0.00000000	     52.64695924	     -8.84099551	     78.78508430	      5.68305131	     83.43856990	      0.00000000	      0.00000000
